<svg width="553" height="518" viewBox="0 0 553 518" fill="none" xmlns="http://www.w3.org/2000/svg">
<g filter="url(#filter0_d_171_1896)">
<g filter="url(#filter1_i_171_1896)">
<path d="M260.747 5.03941C261.667 5.03176 262.588 5.0241 263.536 5.0162C309.224 4.72298 367.894 8.11851 403.099 39.2959C406.031 42.3204 405.978 43.2658 405.978 47.5729C404.608 57.6294 395.438 66.2927 387.319 72.5267C356.359 92.7228 319.974 97.0873 283.235 100.641C246.005 104.311 209.254 112.142 176.232 128.944C175.505 129.31 174.778 129.676 174.029 130.053C134.472 150.224 107.519 183.683 88.7648 221.165C88.1439 222.397 87.523 223.629 86.8833 224.899C83.4712 231.977 80.6259 239.152 78.0501 246.526C77.6337 247.694 77.6337 247.694 77.209 248.885C72.3906 263.189 70.648 277.248 70.834 292.161C70.8422 293.334 70.8422 293.334 70.8505 294.531C70.9449 306.16 71.4833 317.295 74.77 328.575C75.0017 329.41 75.2335 330.246 75.4722 331.106C82.4501 355.877 93.9522 378.586 112.089 398.012C112.915 398.899 113.74 399.785 114.59 400.699C117.213 403.459 119.882 406.17 122.585 408.861C123.484 409.756 124.383 410.652 125.31 411.574C154.694 439.883 194.493 455.717 235.709 462.024C236.494 462.151 237.278 462.278 238.087 462.409C259.01 465.73 281.285 465.432 302.184 462.024C303.421 461.823 303.421 461.823 304.683 461.618C312.343 460.304 320.213 458.869 327.731 456.647C340.871 452.764 353.625 446.849 366.249 441.52C368.172 440.708 370.123 439.928 372.158 439.24C397.35 430.653 415.876 416.504 436.3 400.182C437.312 399.375 438.324 398.568 439.366 397.736C451.842 387.548 467.435 373.763 469.237 357.487C469.248 357.154 469.257 356.826 469.264 356.504C469.43 349.166 463.454 343.147 456.116 343.345C453.1 343.426 449.988 344.156 447.21 345.332C438.059 349.206 430.22 355.697 422.42 361.45C398.123 379.017 368.826 386.427 339.666 394.174C316.463 400.345 295.031 406.351 277.766 422.966C273.133 427.407 267.704 431.871 261.793 435.187C257.801 437.427 252.955 439.117 248.937 436.922C246.88 435.798 245.214 433.787 244.329 431.617C242.521 427.18 243.201 422.607 243.873 417.541C246.477 407.637 250.872 399.323 257.868 391.502C258.535 390.747 259.203 389.992 259.89 389.214C275.317 373.39 299.476 368.735 320.698 363.226C348.579 355.94 378.003 343.359 394.316 319.895C400.318 309.4 403.528 299.486 400.557 287.567C397.716 280.111 393.603 275.835 386.185 272.077C380.503 269.719 374.66 268.403 368.623 267.114C347.018 262.457 328.602 254.54 316.32 236.469C313.007 230.68 311.702 225.454 312.348 219.211C312.512 217.626 313.004 216.087 314.242 215.084C320.832 209.745 331.367 201.9 337.008 195.568C337.418 195.107 337.8 194.634 338.147 194.147C342.229 188.412 347.79 179.578 350.703 173.17C353.491 167.037 355.266 163.042 356.976 156.527C357.246 155.498 357.461 154.39 357.661 153.197C357.816 148.628 357.534 144.081 357.216 139.522C357.071 137.167 356.941 134.815 356.848 132.457C356.812 131.581 356.767 130.706 356.718 129.831C356.576 127.338 356.435 124.595 357.511 122.342C359.715 117.73 365.413 116.244 370.524 116.175C381.813 116.024 393.162 120.177 403.646 123.519C404.101 123.661 404.556 123.802 405.013 123.943C406.133 124.291 407.298 123.556 407.468 122.396C408.533 118.331 410.424 114.809 412.466 111.11C412.882 110.349 413.299 109.588 413.728 108.804C423.207 91.6342 427.233 84.3431 431.214 79.4015C437.341 71.7958 448.073 67.0891 456.431 72.1411C470.763 82.5377 478.213 100.437 485.755 115.324C492.161 127.954 498.841 139.692 508.075 150.771C545.396 195.645 558.447 247.49 550.987 303.48C544.499 348.117 522.702 390.076 491.113 424.051C490.345 424.886 489.577 425.721 488.785 426.581C465.861 450.89 440.086 469.625 409.477 484.808C408.718 485.186 407.959 485.563 407.177 485.952C387.88 495.462 368.085 501.956 346.933 506.936C344.694 507.467 342.464 508.031 340.237 508.605C278.871 523.555 210.311 511.09 155.24 483.723C154.464 483.341 153.689 482.96 152.89 482.566C136.406 474.399 121.623 464.635 107.424 453.344C106.537 452.641 105.65 451.937 104.737 451.213C90.0722 439.247 76.0788 426.42 64.5382 411.759C63.1234 409.966 61.6787 408.197 60.2287 406.429C40.5334 382.037 27.2285 354.208 18.4814 324.93C17.9091 323.016 17.3198 321.106 16.7138 319.2C14.2806 311.374 12.8663 303.545 11.648 295.484C11.4511 294.241 11.2541 292.997 11.0512 291.716C9.01079 278.578 8.01798 265.705 8.00356 252.425C8.00238 251.667 8.00121 250.909 8 250.129C8.01475 235.934 9.31651 222.161 11.7938 208.146C11.95 207.189 12.1061 206.233 12.267 205.248C18.8773 165.093 38.6039 129.113 65.4402 97.4806C65.9521 96.8757 66.464 96.2708 66.9914 95.6476C80.6992 79.6242 96.4899 64.9022 114.422 52.9976C115.185 52.4854 115.949 51.9732 116.736 51.4454C153.981 26.7123 196.337 12.0375 241.54 6.34475C243.001 6.15402 244.461 5.96329 245.966 5.76678C250.9 5.20072 255.779 5.06706 260.747 5.03941Z" fill="#FCD7BE"/>
</g>
<g filter="url(#filter2_i_171_1896)">
<path d="M246.389 181.145C262.373 192.628 269.989 206.537 277.307 223.765C287.022 246.468 300.076 258 322.923 269.297C324.739 270.197 326.485 271.096 328.149 272.037C339.488 278.447 344.114 292.793 338.492 304.542C335.861 310.042 332.166 315.221 328.243 320.155C317.755 331.884 305.399 336.441 289.758 339.684C288.863 339.877 287.967 340.069 287.045 340.268C283.549 340.829 280.253 340.906 276.706 340.921C275.315 340.942 273.924 340.963 272.49 340.985C269.602 341.021 266.714 341.041 263.825 341.044C251.836 341.271 239.872 343.764 230.895 351.707C221.196 363.039 219.372 375.964 219.721 389.956C219.75 392.274 219.779 394.592 219.807 396.911C219.865 400.525 219.931 404.139 220.008 407.753C220.078 411.269 220.12 414.784 220.158 418.3C220.189 419.383 220.221 420.466 220.253 421.581C220.314 429.32 213.954 435.228 206.258 434.411C205.349 434.314 204.418 434.195 203.457 434.074C186.962 430.49 171.392 419.373 161.833 406.455C160.405 404.127 159.149 401.802 157.974 399.356C157.619 398.662 157.265 397.969 156.899 397.254C151.446 386.15 150.993 369.864 155.519 358.378C161.324 347.48 170.365 339.526 180.256 331.843C192.887 320.843 198.282 304.018 199.239 288.335C199.905 268.81 196.023 250.196 190.702 231.392C190.435 230.441 190.169 229.49 189.895 228.51C188.177 222.773 186.255 216.548 182.767 211.448C181.863 210.127 180.315 209.057 178.758 208.682C176.561 208.151 174.325 209.283 173.929 211.509C173.519 213.821 173.978 216.571 173.972 218.673C174.885 228.476 176.233 236.359 178.31 245.157C179.069 248.453 179.819 251.751 180.565 255.049C180.742 255.826 180.919 256.603 181.1 257.404C185.186 275.671 185.744 295.138 174.762 311.56C168.364 319.762 160.285 325.39 149.3 327.109C133.487 327.666 118.248 322.861 106.369 313.306C95.7807 303.935 90.4121 295.586 89.75 281.774C90.5234 252.869 106.04 215.881 126.486 194.3C127.324 193.415 128.161 192.53 129.024 191.618C141.9 178.873 158.469 171.845 176.634 168.261C177.549 168.061 178.465 167.861 179.408 167.655C201.684 164.166 227.97 169.151 246.389 181.145Z" fill="#7A513B"/>
</g>
<path d="M240.739 227.232C245.139 225.865 250.397 227.293 253.385 230.801C253.468 230.899 253.55 231 253.629 231.103C255.244 233.189 255.639 235.995 255.375 238.619C255.319 239.18 255.227 239.728 255.087 240.27C254.412 242.892 252.376 244.971 249.986 246.244C249.734 246.378 249.48 246.504 249.222 246.623C246.002 248.111 242.123 248.147 239.037 246.398C238.642 246.174 238.258 245.931 237.877 245.665C235.735 244.174 233.94 241.979 233.551 239.398C232.958 235.466 234.536 231.315 237.666 228.861C238.612 228.119 239.609 227.583 240.739 227.232Z" fill="#141414"/>
<path d="M369.491 192.335C371.768 191.523 374.326 191.388 376.588 192.237C377.029 192.402 377.427 192.604 377.865 192.882C379.786 194.101 381.377 195.858 382.351 197.914C382.494 198.217 382.606 198.5 382.694 198.786C383.442 201.223 382.841 203.955 381.505 206.125C380.753 207.345 379.85 208.245 378.523 209.132C376.884 210.228 374.833 210.955 372.864 211.061C370.17 211.206 367.661 209.988 365.688 208.148C364.696 207.223 363.992 206.274 363.455 205.072C362.42 202.756 362.455 200.04 363.475 197.718C364.649 195.048 366.524 193.393 369.491 192.335Z" fill="#1E1E1E"/>
</g>
<defs>
<filter id="filter0_d_171_1896" x="0" y="0" width="553" height="518" filterUnits="userSpaceOnUse" color-interpolation-filters="sRGB">
<feFlood flood-opacity="0" result="BackgroundImageFix"/>
<feColorMatrix in="SourceAlpha" type="matrix" values="0 0 0 0 0 0 0 0 0 0 0 0 0 0 0 0 0 0 127 0" result="hardAlpha"/>
<feOffset dx="-4" dy="-1"/>
<feGaussianBlur stdDeviation="2"/>
<feColorMatrix type="matrix" values="0 0 0 0 0 0 0 0 0 0 0 0 0 0 0 0 0 0 0.29 0"/>
<feBlend mode="normal" in2="BackgroundImageFix" result="effect1_dropShadow_171_1896"/>
<feBlend mode="normal" in="SourceGraphic" in2="effect1_dropShadow_171_1896" result="shape"/>
</filter>
<filter id="filter1_i_171_1896" x="8" y="5" width="547.5" height="511" filterUnits="userSpaceOnUse" color-interpolation-filters="sRGB">
<feFlood flood-opacity="0" result="BackgroundImageFix"/>
<feBlend mode="normal" in="SourceGraphic" in2="BackgroundImageFix" result="shape"/>
<feColorMatrix in="SourceAlpha" type="matrix" values="0 0 0 0 0 0 0 0 0 0 0 0 0 0 0 0 0 0 127 0" result="hardAlpha"/>
<feMorphology radius="4" operator="erode" in="SourceAlpha" result="effect1_innerShadow_171_1896"/>
<feOffset dx="2.5" dy="1"/>
<feGaussianBlur stdDeviation="1"/>
<feComposite in2="hardAlpha" operator="arithmetic" k2="-1" k3="1"/>
<feColorMatrix type="matrix" values="0 0 0 0 0 0 0 0 0 0 0 0 0 0 0 0 0 0 0.56 0"/>
<feBlend mode="normal" in2="shape" result="effect1_innerShadow_171_1896"/>
</filter>
<filter id="filter2_i_171_1896" x="89.75" y="166.564" width="253.634" height="271.422" filterUnits="userSpaceOnUse" color-interpolation-filters="sRGB">
<feFlood flood-opacity="0" result="BackgroundImageFix"/>
<feBlend mode="normal" in="SourceGraphic" in2="BackgroundImageFix" result="shape"/>
<feColorMatrix in="SourceAlpha" type="matrix" values="0 0 0 0 0 0 0 0 0 0 0 0 0 0 0 0 0 0 127 0" result="hardAlpha"/>
<feOffset dx="2.5" dy="3.5"/>
<feGaussianBlur stdDeviation="2"/>
<feComposite in2="hardAlpha" operator="arithmetic" k2="-1" k3="1"/>
<feColorMatrix type="matrix" values="0 0 0 0 0 0 0 0 0 0 0 0 0 0 0 0 0 0 0.46 0"/>
<feBlend mode="normal" in2="shape" result="effect1_innerShadow_171_1896"/>
</filter>
</defs>
</svg>
