<svg width="348" height="326" viewBox="0 0 348 326" fill="none" xmlns="http://www.w3.org/2000/svg">
<g filter="url(#filter0_d_178_1980)">
<g filter="url(#filter1_i_178_1980)">
<path d="M165.677 5.02458C166.251 5.0198 166.826 5.01502 167.417 5.0101C195.92 4.82727 232.521 6.94448 254.484 26.3845C256.313 28.2704 256.28 28.8599 256.28 31.5454C255.425 37.816 249.705 43.2178 244.639 47.1049C225.325 59.6977 202.626 62.4191 179.706 64.6352C156.48 66.9231 133.553 71.8062 112.952 82.2828C112.498 82.511 112.045 82.7391 111.578 82.9742C86.9002 95.5515 70.0851 116.414 58.3854 139.785C57.998 140.553 57.6107 141.322 57.2116 142.113C55.083 146.527 53.3079 151.001 51.701 155.598C51.4412 156.327 51.4412 156.327 51.1763 157.07C48.1703 165.989 47.0832 174.754 47.1992 184.054C47.2043 184.785 47.2043 184.785 47.2095 185.531C47.2684 192.782 47.6043 199.725 49.6547 206.759C49.7993 207.279 49.9438 207.8 50.0927 208.337C54.446 223.782 61.6215 237.942 72.9365 250.054C73.4513 250.607 73.9662 251.16 74.4967 251.73C76.1329 253.451 77.7978 255.141 79.4844 256.819C80.0453 257.378 80.6061 257.936 81.184 258.511C99.5155 276.163 124.344 286.035 150.057 289.968C150.547 290.047 151.036 290.126 151.54 290.208C164.593 292.279 178.49 292.093 191.528 289.968C192.299 289.842 192.299 289.842 193.087 289.715C202.145 288.162 211.926 286.434 219.539 281.512C224.247 278.486 229.833 277.569 235.181 275.761C250.898 270.407 262.455 261.585 275.197 251.407C275.828 250.904 276.459 250.401 277.109 249.883C284.892 243.53 294.62 234.935 295.744 224.786C295.751 224.579 295.757 224.377 295.761 224.177C295.865 219.599 292.136 215.844 287.558 215.968C285.677 216.019 283.736 216.474 282.003 217.207C276.294 219.622 271.404 223.67 266.537 227.257C251.379 238.21 233.102 242.831 214.911 247.661C200.435 251.509 187.065 255.254 176.295 265.614C173.404 268.384 170.017 271.167 166.329 273.235C163.839 274.631 160.816 275.685 158.31 274.316C157.026 273.615 155.986 272.361 155.434 271.007C154.307 268.241 154.731 265.39 155.15 262.231C156.774 256.056 159.516 250.872 163.881 245.995C164.297 245.525 164.714 245.054 165.143 244.568C174.766 234.702 189.838 231.799 203.078 228.364C220.471 223.821 238.828 215.977 249.005 201.347C252.749 194.803 254.751 188.621 252.898 181.189C251.125 176.54 248.559 173.874 243.932 171.53C240.387 170.06 236.742 169.24 232.976 168.436C219.497 165.532 208.008 160.595 200.347 149.328C198.28 145.718 197.466 142.46 197.868 138.567C197.971 137.578 198.278 136.619 199.05 135.994C203.16 132.665 209.734 127.772 213.253 123.824C213.508 123.538 213.746 123.243 213.962 122.94C216.51 119.365 219.979 113.855 221.797 109.858C223.536 106.035 224.643 103.545 225.71 99.482C225.878 98.84 226.012 98.1495 226.137 97.4053C226.234 94.5563 226.058 91.721 225.859 88.8787C225.769 87.4103 225.688 85.9432 225.63 84.4734C225.607 83.9279 225.58 83.3825 225.549 82.8374C225.46 81.2817 225.372 79.5708 226.044 78.1652C227.42 75.2904 230.972 74.3641 234.159 74.321C241.203 74.2258 248.283 76.8159 254.825 78.9003C255.109 78.9884 255.393 79.0764 255.679 79.1649C256.377 79.3813 257.103 78.9234 257.209 78.2001C257.874 75.6655 259.054 73.4693 260.327 71.1629C260.587 70.6883 260.847 70.2137 261.115 69.7247C267.027 59.0206 269.539 54.4742 272.022 51.3929C275.845 46.6489 282.54 43.7141 287.755 46.8644C296.696 53.3471 301.344 64.5077 306.049 73.79C310.045 81.6653 314.213 88.9844 319.973 95.8927C343.256 123.872 351.398 156.199 346.744 191.111C342.697 218.944 329.098 245.106 309.392 266.29C308.912 266.811 308.433 267.332 307.939 267.868C293.638 283.026 277.558 294.707 258.463 304.174C257.989 304.41 257.516 304.645 257.028 304.888C244.989 310.818 232.64 314.866 219.445 317.972C218.048 318.303 216.656 318.655 215.267 319.012C176.984 328.334 134.212 320.562 99.856 303.498C99.3723 303.26 98.8886 303.022 98.3902 302.777C88.1062 297.684 78.8841 291.596 70.0262 284.556C69.4729 284.117 68.9196 283.679 68.3494 283.227C59.201 275.766 50.4712 267.768 43.2716 258.626C42.3889 257.508 41.4876 256.405 40.583 255.303C28.2961 240.094 19.9958 222.742 14.5388 204.486C14.1818 203.292 13.8142 202.101 13.4361 200.913C11.9181 196.033 11.0359 191.151 10.2758 186.125C10.153 185.35 10.0301 184.575 9.90352 183.776C8.63059 175.584 8.01122 167.557 8.00222 159.277C8.00149 158.804 8.00075 158.332 8 157.845C8.0092 148.994 8.82131 140.407 10.3668 131.667C10.4642 131.071 10.5616 130.475 10.662 129.861C14.7858 104.823 27.0923 82.3882 43.8343 62.6644C44.1536 62.2872 44.473 61.91 44.802 61.5215C53.3537 51.5304 63.2047 42.3508 74.3916 34.9279C74.868 34.6085 75.3444 34.2891 75.8353 33.9601C99.0706 18.5383 125.495 9.38809 153.695 5.83849C154.606 5.71956 155.517 5.60064 156.456 5.47811C159.534 5.12515 162.578 5.04182 165.677 5.02458Z" fill="#141414"/>
</g>
<g filter="url(#filter2_i_178_1980)">
<path d="M156.648 114.18C166.62 121.34 171.371 130.013 175.937 140.755C181.998 154.911 190.141 162.102 204.394 169.146C213.853 173.829 217.833 185.341 212.344 194.355C210.975 196.603 209.377 198.765 207.714 200.857C201.17 208.17 193.462 211.012 183.704 213.034C183.146 213.154 182.587 213.274 182.012 213.398C179.831 213.748 177.775 213.796 175.562 213.805C174.694 213.819 173.826 213.832 172.932 213.845C171.13 213.868 169.328 213.88 167.526 213.882C160.046 214.024 152.583 215.578 146.983 220.531C140.931 227.596 139.794 235.656 140.011 244.38C140.03 245.825 140.048 247.271 140.065 248.716C140.102 250.97 140.142 253.224 140.191 255.477C140.234 257.669 140.26 259.861 140.284 262.054C140.304 262.729 140.323 263.404 140.343 264.099C140.381 268.925 136.415 272.608 131.616 272.099C131.048 272.039 130.466 271.965 129.865 271.889C119.575 269.654 109.861 262.722 103.898 254.668C103.007 253.216 102.224 251.766 101.491 250.241C101.269 249.809 101.048 249.376 100.82 248.931C97.418 242.007 97.1351 231.852 99.9588 224.69C103.581 217.895 109.221 212.936 115.391 208.145C123.271 201.286 126.637 190.795 127.234 181.016C127.649 168.842 125.227 157.236 121.908 145.511C121.742 144.918 121.575 144.325 121.404 143.714C120.333 140.137 119.134 136.256 116.958 133.076C116.394 132.252 115.428 131.584 114.457 131.35C113.086 131.02 111.691 131.725 111.444 133.114C111.188 134.555 111.474 136.27 111.471 137.58C112.04 143.693 112.881 148.608 114.177 154.094C114.651 156.149 115.119 158.205 115.584 160.262C115.694 160.746 115.804 161.231 115.918 161.73C118.467 173.12 118.815 185.258 111.963 195.498C107.972 200.612 102.932 204.121 96.0795 205.193C86.2142 205.54 76.7075 202.544 69.2964 196.586C62.691 190.743 59.3418 185.537 58.9287 176.926C59.4112 158.902 69.091 135.839 81.8467 122.383C82.3691 121.831 82.8915 121.279 83.4297 120.71C91.4627 112.763 101.799 108.381 113.132 106.147C113.703 106.022 114.274 105.898 114.862 105.769C128.759 103.593 145.158 106.701 156.648 114.18Z" fill="#141414"/>
</g>
<path d="M153.649 143.446C156.147 142.869 158.936 143.653 160.764 145.451C161.021 145.704 161.251 145.98 161.458 146.292C162.227 147.452 162.433 148.9 162.355 150.29C162.323 150.859 162.24 151.403 162.078 151.941C161.639 153.397 160.509 154.551 159.186 155.301C158.956 155.432 158.723 155.551 158.486 155.66C156.477 156.587 154.059 156.61 152.134 155.52C151.887 155.38 151.647 155.228 151.409 155.062C150.073 154.132 148.954 152.764 148.711 151.155C148.341 148.703 149.326 146.115 151.277 144.585C151.991 144.025 152.752 143.654 153.649 143.446Z" fill="#D9D9D9"/>
<path d="M233.089 121.973C234.763 121.282 236.753 121.106 238.365 121.933C238.412 121.957 238.459 121.982 238.506 122.009C239.902 122.792 241.164 124.17 241.703 125.678C242.307 127.367 241.86 129.189 240.843 130.667C240.408 131.3 239.883 131.794 239.152 132.282C238.129 132.965 236.85 133.419 235.622 133.485C233.941 133.575 232.376 132.816 231.144 131.668C230.813 131.36 230.534 131.047 230.294 130.708C228.961 128.822 229.018 126.127 230.287 124.197C230.945 123.195 231.85 122.485 233.089 121.973Z" fill="#D9D9D9"/>
</g>
<defs>
<filter id="filter0_d_178_1980" x="0" y="0" width="348" height="326" filterUnits="userSpaceOnUse" color-interpolation-filters="sRGB">
<feFlood flood-opacity="0" result="BackgroundImageFix"/>
<feColorMatrix in="SourceAlpha" type="matrix" values="0 0 0 0 0 0 0 0 0 0 0 0 0 0 0 0 0 0 127 0" result="hardAlpha"/>
<feOffset dx="-4" dy="-1"/>
<feGaussianBlur stdDeviation="2"/>
<feColorMatrix type="matrix" values="0 0 0 0 0 0 0 0 0 0 0 0 0 0 0 0 0 0 0.41 0"/>
<feBlend mode="normal" in2="BackgroundImageFix" result="effect1_dropShadow_178_1980"/>
<feBlend mode="normal" in="SourceGraphic" in2="effect1_dropShadow_178_1980" result="shape"/>
</filter>
<filter id="filter1_i_178_1980" x="8" y="5" width="342" height="318" filterUnits="userSpaceOnUse" color-interpolation-filters="sRGB">
<feFlood flood-opacity="0" result="BackgroundImageFix"/>
<feBlend mode="normal" in="SourceGraphic" in2="BackgroundImageFix" result="shape"/>
<feColorMatrix in="SourceAlpha" type="matrix" values="0 0 0 0 0 0 0 0 0 0 0 0 0 0 0 0 0 0 127 0" result="hardAlpha"/>
<feMorphology radius="4" operator="erode" in="SourceAlpha" result="effect1_innerShadow_178_1980"/>
<feOffset dx="2"/>
<feGaussianBlur stdDeviation="1"/>
<feComposite in2="hardAlpha" operator="arithmetic" k2="-1" k3="1"/>
<feColorMatrix type="matrix" values="0 0 0 0 0.25098 0 0 0 0 0.25098 0 0 0 0 0.25098 0 0 0 1 0"/>
<feBlend mode="normal" in2="shape" result="effect1_innerShadow_178_1980"/>
</filter>
<filter id="filter2_i_178_1980" x="58.9287" y="105.089" width="157.909" height="169.058" filterUnits="userSpaceOnUse" color-interpolation-filters="sRGB">
<feFlood flood-opacity="0" result="BackgroundImageFix"/>
<feBlend mode="normal" in="SourceGraphic" in2="BackgroundImageFix" result="shape"/>
<feColorMatrix in="SourceAlpha" type="matrix" values="0 0 0 0 0 0 0 0 0 0 0 0 0 0 0 0 0 0 127 0" result="hardAlpha"/>
<feOffset dx="2" dy="2"/>
<feGaussianBlur stdDeviation="2.15"/>
<feComposite in2="hardAlpha" operator="arithmetic" k2="-1" k3="1"/>
<feColorMatrix type="matrix" values="0 0 0 0 0.25098 0 0 0 0 0.25098 0 0 0 0 0.25098 0 0 0 1 0"/>
<feBlend mode="normal" in2="shape" result="effect1_innerShadow_178_1980"/>
</filter>
</defs>
</svg>
